<?xml version="1.0" encoding="UTF-8" standalone="no"?> <svg xmlns:inkscape="http://www.inkscape.org/namespaces/inkscape" xmlns:sodipodi="http://sodipodi.sourceforge.net/DTD/sodipodi-0.dtd" xmlns="http://www.w3.org/2000/svg" xmlns:svg="http://www.w3.org/2000/svg" viewBox="0 0 126.00671 69.953362" version="1.1" id="svg190" sodipodi:docname="logo-nantes-ma-bibliotheque-ville-nantes.svg" width="126.00671" height="69.953362" inkscape:version="1.2.2 (b0a8486, 2022-12-01)"><defs id="defs194"></defs><path d="m 97.090706,35.79226 c -0.466,-0.6714 -0.267,-1.3766 0.465,-1.7124 l 2.895004,-1.4101 c 0.167,-0.1007 0.367,-0.0334 0.466,0.1342 2.296,3.9283 6.156,6.0101 10.648,6.0101 5.391,0 9.584,-3.727 9.584,-8.8302 0,-4.2977 -1.464,-5.8756 -8.12,-8.7295 -2.262,-0.9738 -7.287,-3.3911 -9.483,-6.2449 0.798,-2.5853 1.763,-5.3049 3.893,-7.1515 v 0.0334 c -0.499,0.8059 -0.632,1.4438 -0.632,1.9139 0,3.1559 4.326,5.3049 8.019,6.8156 6.422,2.619 11.181,5.7415 11.181,13.061 0,8.5953 -6.589,14.034 -14.675,14.034 -5.889,0 -10.881,-2.8876 -14.241004,-7.9239 z m -13.71,-21.354 c -3.8933,0 -6.2227,3.1897 -6.5221,5.9094 h 11.28 c 0.5325,0 0.8656,-0.3021 0.8656,-1.2759 0,-2.5855 -2.4961,-4.6335 -5.6238,-4.6335 z m 40.363004,-10.878 c 0.2,0.13417 0.233,0.33584 0.067,0.53724 l -0.965,1.1079 c -0.632,0.7052 -1.697,1.3431 -2.596,1.3431 -0.532,0 -0.998,-0.1679 -1.763,-0.5372 -1.464,-0.7386 -3.062,-1.2087 -5.125,-1.2087 -8.418,0 -10.382,8.3602 -11.48,14.135 -1.63,8.6626 -6.189004,17.224 -15.972004,17.224 -7.5203,0 -14.408,-4.9691 -14.408,-13.33 0,-3.2904 1.0649,-6.3456 2.895,-8.696 h -3.9264 c -0.3661,0 -0.6655,0.3021 -0.6655,0.6714 v 15.31 c 0,1.2424 -0.6322,1.9138 -1.8967,1.9138 h -1.9299 c -0.4326,0 -0.6322,-0.2014 -0.6322,-0.6714 v -16.552 c 0,-0.4028 -0.2663,-0.6714 -0.6323,-0.6714 h -5.3242 c -0.4658,0 -0.6654,-0.2014 -0.6654,-0.638 v -1.7796 c 0,-1.2424 0.6654,-1.8803 1.6637,-1.8803 0.2331,0 22.694,-0.0335 22.96,-0.0335 6.5883,0 10.282,5.0028 10.282,11.55 0,2.1153 -0.399,3.727 -2.696,3.727 h -14.308 c 1.098,4.0962 5.0245,6.2114 8.8179,6.2114 8.053,0 10.249,-6.5473 11.713,-13.464 C 99.153706,8.4278 102.58071,0 113.69471,0 c 4.093,0 6.755,1.2087 10.049,3.559 z m -75.535004,21.992 c 0.0998,1.0745 -0.366,1.7124 -1.4309,1.8466 l -1.2976,0.1342 c -0.3329,0.0672 -0.5325,-0.1007 -0.5657,-0.4366 l -1.9633,-16.015 c -0.0332,-0.3359 0.0998,-0.5035 0.4658,-0.5707 l 1.3975,-0.168 c 0.7652,-0.1006 1.2976,0.1007 1.8635,0.638 l 8.0859,8.1588 c 0.3329,0.302 0.6323,0.1679 0.5657,-0.2687 l -0.9983,-8.226 c -0.133,-0.9737 0.3328,-1.511 1.2977,-1.6452 l 1.4309,-0.1679 c 0.3328,-0.0334 0.5324,0.1007 0.5656,0.4366 l 1.9633,16.015 c 0.0332,0.3358 -0.0998,0.5372 -0.4658,0.5707 l -0.9651,0.1342 c -0.8318,0.1007 -1.4972,-0.1342 -2.0963,-0.7386 l -8.319,-8.4609 c -0.3328,-0.3021 -0.6322,-0.1342 -0.5656,0.2686 l 0.133,1.1414 c 0.1664,1.3094 -0.5656,2.4846 -1.7969,2.9211 l -0.1996,0.0672 1.7969,-0.2351 c 0.2994,-0.0335 0.5324,0.1342 0.5656,0.47 z m -12.778,1.8469 c 2.6287,-1.0745 3.76,-3.5256 2.6954,-6.1443 -0.2663,-0.6714 -0.5656,-1.0745 -0.8985,-0.9065 -0.3328,0.2014 -0.6989,0.4027 -1.0649,0.5707 -2.3957,1.2759 -5.1909,2.7531 -4.1595,5.3721 0.5325,1.3428 2.163,1.6115 3.4275,1.108 z m 0.6654,3.6932 c -3.4274,1.3765 -6.3224,-0.2014 -7.6201,-3.3911 -1.6305,-4.1298 1.0649,-6.6815 4.1927,-8.5619 1.7303,-1.0407 3.4274,-2.048 2.7951,-3.6262 -0.5324,-1.3431 -1.9633,-1.3431 -3.261,-0.8059 -1.2645,0.5373 -2.5956,1.6117 -3.2942,2.4173 -0.366,0.4366 -0.599,0.6045 -0.8653,0.7052 -0.7986,0.3021 -1.4309,0.0672 -2.7952,-1.1414 -0.1664,-0.1007 -0.233,-0.2014 -0.2994,-0.3359 -0.0666,-0.2014 -0.0331,-0.4365 0.1665,-0.6379 1.5973,-2.1152 3.494,-3.559 5.5904,-4.3984 4.2924,-1.7793 7.4871,-0.1679 9.3172,4.3984 l 4.4257,11.08 c 0.1664,0.3693 0.0666,0.7387 -0.3992,0.9066 l -1.2313,0.5035 c -1.1647,0.47 -1.9965,0.2014 -2.3626,-0.7721 -0.5658,1.041 -1.5307,2.4848 -4.3593,3.66 z m -25.922,5.3049 c 0.3329,1.4772 -0.2662001,2.451 -1.7303001,2.7866 l -1.7635,0.4028 c -0.4992,0.1342 -0.8318,-0.0672 -0.9316,-0.5707 l -5.72360003,-25.014 c -0.0998,-0.5035 0.0998,-0.8393 0.5656,-0.94 l 1.73030003,-0.4028 c 1.1647,-0.2686 2.0963,-0.0335 3.0614,0.7052 l 13.9420001,11.147 c 0.5657,0.4366 1.0315,0.168 0.8653,-0.5372 l -2.8283,-12.423 c -0.3329,-1.4773 0.2662,-2.4511 1.7303,-2.7867 l 1.7635,-0.4028 c 0.499,-0.1341 0.7986,0.0673 0.9316,0.5707 l 5.7234,25.014 c 0.0998,0.5037 -0.0998,0.8058 -0.5991,0.94 l -1.4641,0.3359 c -0.366,0.1007 -0.6988,0 -0.9982,-0.2352 L 7.7448059,21.49006 c -0.5325,-0.4366 -0.9983,-0.1007 -0.8319,0.5707 l 0.6323,2.8539 c 0.4658,1.981 -0.2663,4.1297 -1.7635,5.439 l -0.3329,0.2687 2.0964,-0.5035 c 0.6988,-0.168 1.2313,0.2014 1.3974,0.8731 l 1.2313001,5.4056 z" fill="#ffffff" id="path132"></path><g fill="#ffd057" id="g162" transform="translate(-11.009294,-5.05374)"><path d="m 23.723,59.394 c -0.1533,0.2319 -0.3304,0.3479 -0.5313,0.3479 -0.1917,0 -0.3734,-0.1158 -0.5458,-0.3479 l -1.8815,-2.681 c -0.0574,-0.0675 -0.115,-0.1015 -0.1724,-0.1015 -0.0862,0 -0.1292,0.0724 -0.1292,0.2173 v 0.9565 c 0,0.3479 -0.103,0.6497 -0.3089,0.9057 -0.2061,0.256 -0.4764,0.4229 -0.8114,0.5 l -0.1151,0.0145 h 0.9624 c 0.1817,0 0.273,0.0919 0.273,0.2755 v 2.3043 c 0,0.5216 -0.2635,0.7825 -0.7899,0.7825 h -0.7612 c -0.1819,0 -0.273,-0.0917 -0.273,-0.2755 V 53.742 c 0,-0.174 0.0908,-0.2609 0.273,-0.2609 h 1.1489 c 0.2105,0 0.39,0.0387 0.5387,0.1158 0.1485,0.0773 0.2847,0.2079 0.4093,0.3912 l 1.9962,2.8404 c 0.0479,0.0774 0.1099,0.1158 0.1869,0.1158 0.0764,0 0.1387,-0.0384 0.1868,-0.1158 l 2.0107,-2.8404 c 0.1052,-0.1833 0.2344,-0.3139 0.3877,-0.3912 0.1531,-0.0771 0.3397,-0.1158 0.5602,-0.1158 h 1.1778 c 0.1626,0 0.2442,0.0869 0.2442,0.2609 v 8.5503 c 0,0.1836 -0.0816,0.2755 -0.2442,0.2755 h -0.8188 c -0.5077,0 -0.7612,-0.2609 -0.7612,-0.7825 v -4.9562 c 0,-0.1545 -0.0429,-0.2319 -0.1291,-0.2319 -0.0574,0 -0.1151,0.0387 -0.1724,0.1161 z" id="path134"></path><path d="m 30.359,55.655 c -0.1918,0 -0.3568,-0.0675 -0.4955,-0.2028 -0.139,-0.1352 -0.304,-0.3863 -0.4955,-0.7534 -0.0383,-0.0675 -0.0573,-0.1303 -0.0573,-0.1885 0,-0.1062 0.0573,-0.1885 0.1724,-0.2464 1.0148,-0.599 2.0441,-0.8986 3.088,-0.8986 1.0627,0 1.8601,0.295 2.3914,0.8841 0.5314,0.5893 0.797,1.4492 0.797,2.5794 v 5.4199 c 0,0.2126 -0.1055,0.3188 -0.3159,0.3188 H 34.826 c -0.5746,0 -0.8618,-0.2464 -0.8618,-0.7392 -0.1055,0.087 -0.2276,0.1765 -0.3662,0.2681 -0.139,0.0919 -0.3041,0.1789 -0.4955,0.2609 -0.1917,0.0824 -0.4191,0.1474 -0.6823,0.1957 -0.2635,0.0483 -0.5672,0.0724 -0.9121,0.0724 -0.4117,0 -0.7828,-0.0699 -1.113,-0.2102 -0.3304,-0.1399 -0.6056,-0.3309 -0.8258,-0.5723 -0.2203,-0.2415 -0.3903,-0.5312 -0.5099,-0.8695 -0.1199,-0.3381 -0.1795,-0.7005 -0.1795,-1.0869 0,-0.5021 0.0908,-0.9224 0.273,-1.2608 0.1817,-0.338 0.4213,-0.6159 0.7182,-0.8332 0.2967,-0.2174 0.6391,-0.3864 1.0268,-0.5074 0.3878,-0.1207 0.7875,-0.2148 1.1993,-0.2826 0.2202,-0.0291 0.438,-0.0653 0.6534,-0.1087 0.2154,-0.0433 0.4068,-0.1015 0.5746,-0.1739 0.1675,-0.0724 0.3016,-0.1715 0.4022,-0.2972 0.1006,-0.1254 0.1509,-0.2848 0.1509,-0.4782 0,-0.3188 -0.127,-0.5458 -0.3807,-0.681 -0.2537,-0.1353 -0.5387,-0.2028 -0.8547,-0.2028 -0.316,0 -0.6415,0.0486 -0.9768,0.1449 -0.3353,0.0966 -0.6129,0.1981 -0.8329,0.3043 -0.1055,0.0579 -0.1939,0.0965 -0.2657,0.116 -0.072,0.0195 -0.1416,0.0291 -0.2085,0.0291 z m 1.4937,5.3041 c 0.6415,0 1.1655,-0.1932 1.5726,-0.5798 0.4068,-0.3863 0.6105,-0.9032 0.6105,-1.5505 0,-0.1641 -0.0169,-0.2972 -0.0503,-0.3984 -0.0338,-0.1015 -0.0933,-0.1424 -0.1795,-0.1232 -0.0862,0.0099 -0.1749,0.0195 -0.2657,0.0291 -0.0911,0.0096 -0.1844,0.0195 -0.2801,0.0291 -0.3065,0.029 -0.6175,0.0653 -0.9335,0.1086 -0.316,0.0434 -0.601,0.1161 -0.8547,0.2173 -0.2537,0.1016 -0.462,0.2489 -0.6249,0.4421 -0.1629,0.1934 -0.2442,0.4491 -0.2442,0.768 0,0.1643 0.0359,0.3117 0.1077,0.442 0.0718,0.1303 0.1675,0.2417 0.2871,0.3334 0.1197,0.0919 0.2537,0.1618 0.4022,0.2101 0.1488,0.0481 0.2994,0.0722 0.4528,0.0722 z" id="path136"></path><path d="m 44.721,53.481 c 0.3924,0 0.7587,0.0725 1.0986,0.2174 0.3396,0.1448 0.6366,0.3454 0.8906,0.6014 0.2537,0.256 0.4546,0.5532 0.6031,0.8912 0.1485,0.3383 0.2227,0.7005 0.2227,1.0868 0,0.2514 -0.0263,0.4687 -0.0788,0.6522 -0.0528,0.1836 -0.1126,0.3334 -0.1795,0.4492 -0.0574,0.1065 -0.0862,0.186 -0.0862,0.239 0,0.0532 0.0239,0.104 0.0718,0.1523 0.2298,0.2513 0.4258,0.5578 0.5887,0.9202 0.1626,0.3622 0.2442,0.7609 0.2442,1.1955 0,0.4154 -0.0789,0.7897 -0.2368,1.1231 -0.158,0.3333 -0.3688,0.616 -0.632,0.8478 -0.2635,0.2319 -0.5697,0.4083 -0.9191,0.529 -0.3498,0.121 -0.716,0.1811 -1.0987,0.1811 H 41.777 c -0.2297,0 -0.4215,-0.0771 -0.5746,-0.2318 -0.1533,-0.1545 -0.2297,-0.348 -0.2297,-0.5798 v -8.0139 c 0,-0.174 0.0908,-0.2609 0.273,-0.2609 h 3.4753 z m -1.7379,5.2462 c -0.1918,0 -0.2872,0.0966 -0.2872,0.2898 v 1.4926 c 0,0.1935 0.0957,0.2898 0.2872,0.2898 h 2.3699 c 0.2776,0 0.5098,-0.0991 0.6966,-0.2972 0.1869,-0.1978 0.2801,-0.4371 0.2801,-0.7172 0,-0.2802 -0.0932,-0.5266 -0.2801,-0.7392 -0.1868,-0.2124 -0.419,-0.3188 -0.6966,-0.3188 h -2.3699 z m 0.0288,-3.478 c -0.1917,0 -0.2872,0.0965 -0.2872,0.2897 v 1.4927 c 0,0.1934 0.0957,0.2897 0.2872,0.2897 h 1.7809 c 0.2776,0 0.5098,-0.1062 0.6967,-0.3188 0.1868,-0.2124 0.2801,-0.4588 0.2801,-0.7392 0,-0.2802 -0.0933,-0.5192 -0.2801,-0.7173 -0.1869,-0.1978 -0.4191,-0.2971 -0.6967,-0.2971 h -1.7809 z" id="path138"></path><path d="m 51.141,51.858 c 0,0.2514 -0.0957,0.4637 -0.2871,0.6377 -0.1917,0.174 -0.4261,0.2609 -0.7038,0.2609 -0.2779,0 -0.5099,-0.0869 -0.6967,-0.2609 -0.1868,-0.174 -0.2801,-0.3863 -0.2801,-0.6377 0,-0.251 0.0933,-0.4637 0.2801,-0.6376 0.1868,-0.174 0.4188,-0.261 0.6967,-0.261 0.2777,0 0.5121,0.087 0.7038,0.261 0.1912,0.1739 0.2871,0.3866 0.2871,0.6376 z m -0.6608,1.623 c 0.1915,0 0.347,0.0604 0.467,0.1811 0.1196,0.121 0.1794,0.2779 0.1794,0.4711 v 8.1445 c 0,0.1934 -0.0957,0.2898 -0.2871,0.2898 h -1.2496 c -0.1917,0 -0.2871,-0.0966 -0.2871,-0.2898 V 53.771 c 0,-0.1931 0.0957,-0.2897 0.2871,-0.2897 h 0.8903 z" id="path140"></path><path d="m 56.556,53.481 c 0.3923,0 0.7586,0.0725 1.0986,0.2174 0.3396,0.1448 0.6366,0.3454 0.8905,0.6014 0.2538,0.256 0.4547,0.5532 0.6032,0.8912 0.1485,0.3383 0.2227,0.7005 0.2227,1.0868 0,0.2514 -0.0264,0.4687 -0.0789,0.6522 -0.0527,0.1836 -0.1125,0.3334 -0.1794,0.4492 -0.0574,0.1065 -0.0862,0.186 -0.0862,0.239 0,0.0532 0.0239,0.104 0.0718,0.1523 0.2297,0.2513 0.4258,0.5578 0.5887,0.9202 0.1626,0.3622 0.2442,0.7609 0.2442,1.1955 0,0.4154 -0.0789,0.7897 -0.2369,1.1231 -0.158,0.3333 -0.3687,0.616 -0.6319,0.8478 -0.2635,0.2319 -0.5697,0.4083 -0.9192,0.529 -0.3497,0.121 -0.716,0.1811 -1.0986,0.1811 H 53.612 c -0.2298,0 -0.4215,-0.0771 -0.5746,-0.2318 -0.1534,-0.1545 -0.2298,-0.348 -0.2298,-0.5798 v -8.0139 c 0,-0.174 0.0909,-0.2609 0.273,-0.2609 h 3.4754 z m -1.738,5.2462 c -0.1917,0 -0.2871,0.0966 -0.2871,0.2898 v 1.4926 c 0,0.1935 0.0957,0.2898 0.2871,0.2898 h 2.3699 c 0.2777,0 0.5099,-0.0991 0.6967,-0.2972 0.1868,-0.1978 0.2801,-0.4371 0.2801,-0.7172 0,-0.2802 -0.0933,-0.5266 -0.2801,-0.7392 -0.1868,-0.2124 -0.419,-0.3188 -0.6967,-0.3188 H 54.818 Z m 0.0289,-3.478 c -0.1918,0 -0.2872,0.0965 -0.2872,0.2897 v 1.4927 c 0,0.1934 0.0957,0.2897 0.2872,0.2897 h 1.7808 c 0.2777,0 0.5099,-0.1062 0.6967,-0.3188 0.1869,-0.2124 0.2801,-0.4588 0.2801,-0.7392 0,-0.2802 -0.0932,-0.5192 -0.2801,-0.7173 -0.1868,-0.1978 -0.419,-0.2971 -0.6967,-0.2971 h -1.7808 z" id="path142"></path><path d="m 61.927,53.467 c 0.5264,0 0.7899,0.2559 0.7899,0.7679 v 6.2894 c 0,0.174 0.0862,0.261 0.2586,0.261 h 2.2981 c 0.517,0 0.7756,0.2659 0.7756,0.7971 v 0.6955 c 0,0.1836 -0.0862,0.2755 -0.2586,0.2755 h -4.122 c -0.5169,0 -0.7755,-0.2609 -0.7755,-0.7825 v -8.043 c 0,-0.174 0.0908,-0.2609 0.273,-0.2609 z" id="path144"></path><path d="m 68.95,51.858 c 0,0.2514 -0.0957,0.4637 -0.2872,0.6377 -0.1917,0.174 -0.4261,0.2609 -0.7037,0.2609 -0.2779,0 -0.5099,-0.0869 -0.6967,-0.2609 -0.1868,-0.174 -0.2801,-0.3863 -0.2801,-0.6377 0,-0.251 0.0933,-0.4637 0.2801,-0.6376 0.1868,-0.174 0.4188,-0.261 0.6967,-0.261 0.2776,0 0.512,0.087 0.7037,0.261 0.1912,0.1739 0.2872,0.3866 0.2872,0.6376 z m -0.6608,1.623 c 0.1914,0 0.347,0.0604 0.4669,0.1811 0.1197,0.121 0.1795,0.2779 0.1795,0.4711 v 8.1445 c 0,0.1934 -0.0957,0.2898 -0.2872,0.2898 h -1.2495 c -0.1917,0 -0.2872,-0.0966 -0.2872,-0.2898 V 53.771 c 0,-0.1931 0.0957,-0.2897 0.2872,-0.2897 h 0.8903 z" id="path146"></path><path d="m 69.998,58.032 c 0,-0.6376 0.1221,-1.2391 0.3663,-1.8043 0.2442,-0.5652 0.5767,-1.058 0.9982,-1.4781 0.4213,-0.4204 0.9096,-0.7535 1.4649,-0.9999 0.5553,-0.2464 1.1489,-0.3696 1.7809,-0.3696 0.632,0 1.2281,0.1232 1.7882,0.3696 0.5602,0.2464 1.0484,0.5798 1.465,0.9999 0.4166,0.4203 0.7467,0.9129 0.9909,1.4781 0.2442,0.5652 0.3663,1.1667 0.3663,1.8043 0,0.6377 -0.1221,1.2369 -0.3663,1.7969 -0.2442,0.5606 -0.5746,1.0531 -0.9909,1.4782 -0.4166,0.4252 -0.905,0.7608 -1.465,1.0072 -0.5601,0.2464 -1.1562,0.3696 -1.7882,0.3696 -0.632,0 -1.2256,-0.1232 -1.7809,-0.3696 -0.5555,-0.2464 -1.0436,-0.582 -1.4649,-1.0072 C 70.941,60.882 70.6085,60.3892 70.3643,59.8289 70.1201,59.2687 69.998,58.6697 69.998,58.032 Z m 1.8382,0 c 0,0.3866 0.0718,0.7513 0.2154,1.0943 0.1436,0.3429 0.3397,0.6426 0.5887,0.8986 0.2489,0.256 0.5434,0.4565 0.8833,0.6014 0.3396,0.1449 0.7013,0.2173 1.0844,0.2173 0.3927,0 0.7587,-0.0724 1.0989,-0.2173 0.3397,-0.1449 0.6342,-0.3452 0.8833,-0.6014 0.2488,-0.256 0.4451,-0.5554 0.589,-0.8986 0.1436,-0.343 0.2153,-0.7077 0.2153,-1.0943 0,-0.3959 -0.0717,-0.7655 -0.2153,-1.1085 -0.1436,-0.3427 -0.3399,-0.6398 -0.589,-0.8912 -0.2491,-0.251 -0.5436,-0.4491 -0.8833,-0.594 -0.3399,-0.1449 -0.7062,-0.2173 -1.0989,-0.2173 -0.3831,0 -0.7445,0.0724 -1.0844,0.2173 -0.3399,0.1449 -0.6344,0.343 -0.8833,0.594 -0.249,0.2514 -0.4451,0.5485 -0.5887,0.8912 -0.1436,0.343 -0.2154,0.7123 -0.2154,1.1085 z" id="path148"></path><path d="m 83.585,61.916 c 0,0.1934 -0.0598,0.3504 -0.1795,0.4711 -0.1199,0.121 -0.2754,0.1811 -0.4669,0.1811 H 82.048 c -0.1917,0 -0.2871,-0.0966 -0.2871,-0.2897 v -6.7389 c 0,-0.1931 -0.0957,-0.2897 -0.2872,-0.2897 h -1.7809 c -0.1917,0 -0.3472,-0.0604 -0.4669,-0.1811 -0.1199,-0.1207 -0.1794,-0.2777 -0.1794,-0.4711 v -0.8262 c 0,-0.1932 0.0954,-0.2897 0.2871,-0.2897 h 6.6643 c 0.1914,0 0.2871,0.0965 0.2871,0.2897 v 1.1884 c 0,0.1934 -0.0957,0.2897 -0.2871,0.2897 h -2.1257 c -0.1917,0 -0.2872,0.0966 -0.2872,0.2897 z" id="path150"></path><path d="m 88.584,58.858 c -0.1724,0 -0.2586,0.0823 -0.2586,0.2464 v 2.681 c 0,0.5216 -0.2538,0.7825 -0.7612,0.7825 h -0.7899 c -0.182,0 -0.2731,-0.0917 -0.2731,-0.2755 v -8.5503 c 0,-0.174 0.0909,-0.2609 0.2731,-0.2609 h 0.7899 c 0.5074,0 0.7612,0.256 0.7612,0.768 v 2.5652 c 0,0.1835 0.0862,0.2754 0.2586,0.2754 h 3.4758 c 0.1817,0 0.273,-0.0916 0.273,-0.2754 v -2.5652 c 0,-0.512 0.2537,-0.768 0.7612,-0.768 h 0.8044 c 0.0764,0 0.1386,0.0216 0.1868,0.0653 0.0478,0.0433 0.0718,0.1086 0.0718,0.1956 v 8.5503 c 0,0.0966 -0.024,0.1666 -0.0718,0.2102 -0.0482,0.0433 -0.1102,0.0653 -0.1868,0.0653 H 93.094 c -0.5077,0 -0.7612,-0.2609 -0.7612,-0.7825 v -2.681 c 0,-0.1641 -0.0911,-0.2464 -0.273,-0.2464 z" id="path152"></path><path d="m 99.643,53.366 c 0.5843,0 1.1013,0.104 1.5513,0.3117 0.45,0.208 0.83,0.4928 1.142,0.855 0.311,0.3622 0.548,0.785 0.71,1.2679 0.163,0.4832 0.245,0.9952 0.245,1.5363 v 0.3696 c 0,0.121 -0.005,0.2198 -0.015,0.2972 -0.029,0.3092 -0.131,0.5268 -0.309,0.6522 -0.177,0.1256 -0.39,0.1885 -0.639,0.1885 h -5.1128 c 0.115,0.3674 0.273,0.6788 0.4739,0.9348 0.201,0.256 0.4311,0.4637 0.6894,0.6231 0.2586,0.1594 0.536,0.2755 0.8329,0.3479 0.2967,0.0725 0.5983,0.1087 0.9046,0.1087 0.249,0 0.503,-0.0242 0.761,-0.0725 0.259,-0.0483 0.541,-0.1108 0.848,-0.1885 0.105,-0.029 0.196,-0.0507 0.273,-0.0653 0.076,-0.0145 0.153,-0.0216 0.229,-0.0216 0.192,0 0.364,0.0485 0.517,0.1448 0.153,0.0966 0.259,0.2368 0.316,0.4204 l 0.13,0.3913 c 0.019,0.0579 0.028,0.1111 0.028,0.1594 0,0.1449 -0.115,0.2826 -0.344,0.4129 -0.23,0.1304 -0.506,0.2442 -0.826,0.3405 -0.321,0.0966 -0.654,0.1718 -0.999,0.2247 -0.344,0.053 -0.632,0.0799 -0.861,0.0799 -0.6611,0 -1.2836,-0.1087 -1.8674,-0.326 -0.5841,-0.2173 -1.0965,-0.529 -1.5367,-0.9348 -0.4405,-0.4058 -0.79,-0.8934 -1.0486,-1.4635 -0.2586,-0.5699 -0.3878,-1.2029 -0.3878,-1.8985 0,-0.6473 0.1053,-1.2558 0.316,-1.826 0.2105,-0.5699 0.505,-1.0674 0.8833,-1.4927 0.3782,-0.425 0.8304,-0.7608 1.3572,-1.0072 0.5273,-0.247 1.1067,-0.3702 1.7387,-0.3702 z m 1.9963,3.449 c 0,-0.2702 -0.053,-0.5144 -0.158,-0.7317 -0.106,-0.2174 -0.249,-0.4059 -0.431,-0.5653 -0.182,-0.1594 -0.397,-0.2826 -0.646,-0.3696 -0.249,-0.0869 -0.5125,-0.1303 -0.7901,-0.1303 -0.3448,0 -0.6559,0.0628 -0.9336,0.1885 -0.2779,0.1257 -0.5169,0.2897 -0.7181,0.4928 -0.201,0.2028 -0.359,0.4275 -0.474,0.6739 -0.115,0.2464 -0.1868,0.4906 -0.2154,0.7318 h 4.0502 c 0.21,-0.0195 0.316,-0.1161 0.316,-0.2901 z M 98.896,52.4674 c -0.1917,-0.0675 -0.3497,-0.1715 -0.474,-0.3117 -0.1245,-0.1399 -0.1724,-0.3163 -0.1435,-0.529 0.019,-0.1931 0.1098,-0.3525 0.273,-0.4782 0.1626,-0.1254 0.3396,-0.1885 0.5313,-0.1885 0.1626,0 0.3062,0.0579 0.4308,0.1739 l 1.1917,1.1305 c 0.058,0.0579 0.087,0.1303 0.087,0.2173 0,0.087 -0.029,0.1594 -0.087,0.2173 -0.115,0.1161 -0.258,0.174 -0.43,0.174 -0.039,0 -0.096,-0.0096 -0.173,-0.0291 z" id="path154"></path><path d="m 108.6,53.366 c 0.632,0 1.225,0.1232 1.78,0.3696 0.556,0.2464 1.042,0.5822 1.458,1.0072 0.417,0.4253 0.747,0.9203 0.991,1.4855 0.244,0.5653 0.366,1.1667 0.366,1.8044 0,0.7342 -0.158,1.4155 -0.474,2.0433 -0.316,0.6281 -0.742,1.1593 -1.278,1.5942 l 0.79,1.2608 c 0.096,0.1544 0.067,0.2897 -0.086,0.4058 l -0.431,0.2897 c -0.173,0.1161 -0.34,0.174 -0.503,0.174 -0.268,0 -0.498,-0.1498 -0.689,-0.4492 l -0.56,-0.884 c -0.221,0.0677 -0.443,0.1207 -0.668,0.1594 -0.225,0.0384 -0.458,0.0579 -0.697,0.0579 -0.622,0 -1.211,-0.1232 -1.766,-0.3696 -0.556,-0.2464 -1.042,-0.582 -1.458,-1.0073 -0.417,-0.425 -0.747,-0.9178 -0.991,-1.4781 -0.244,-0.5603 -0.367,-1.1592 -0.367,-1.7969 0,-0.6377 0.123,-1.2391 0.367,-1.8044 0.244,-0.5652 0.574,-1.0602 0.991,-1.4855 0.416,-0.425 0.902,-0.7608 1.458,-1.0072 0.555,-0.2464 1.144,-0.3696 1.767,-0.3696 z m 0,7.4777 h 0.165 c 0.052,0 0.107,-0.0046 0.165,-0.0145 l -1.02,-1.6087 c -0.096,-0.1545 -0.067,-0.2898 0.086,-0.4058 l 0.431,-0.2898 c 0.172,-0.116 0.339,-0.1739 0.503,-0.1739 0.268,0 0.497,0.1498 0.689,0.4491 l 0.847,1.3333 c 0.278,-0.2511 0.498,-0.5554 0.661,-0.9129 0.163,-0.3573 0.244,-0.7535 0.244,-1.1884 0,-0.4058 -0.069,-0.78 -0.208,-1.123 -0.139,-0.3427 -0.333,-0.6399 -0.582,-0.8912 -0.249,-0.2511 -0.543,-0.4492 -0.883,-0.594 -0.34,-0.1449 -0.706,-0.2174 -1.098,-0.2174 -0.393,0 -0.757,0.0725 -1.092,0.2174 -0.335,0.1448 -0.627,0.3429 -0.876,0.594 -0.249,0.2513 -0.443,0.5485 -0.582,0.8912 -0.139,0.343 -0.208,0.7172 -0.208,1.123 0,0.3962 0.069,0.7658 0.208,1.1085 0.139,0.343 0.333,0.6402 0.582,0.8912 0.249,0.2514 0.541,0.4492 0.876,0.5941 0.335,0.1454 0.699,0.2178 1.092,0.2178 z" id="path156"></path><path d="m 120.93,53.482 c 0.181,0 0.273,0.0869 0.273,0.2609 v 5.2462 c 0,0.5123 -0.096,0.9927 -0.287,1.4419 -0.192,0.4491 -0.453,0.8404 -0.783,1.1738 -0.331,0.3333 -0.718,0.5968 -1.164,0.7899 -0.445,0.1932 -0.921,0.2898 -1.429,0.2898 -0.507,0 -0.983,-0.0966 -1.429,-0.2898 -0.445,-0.1931 -0.833,-0.4566 -1.163,-0.7899 -0.33,-0.3334 -0.591,-0.7247 -0.783,-1.1738 -0.192,-0.4492 -0.287,-0.9296 -0.287,-1.4419 v -5.2462 c 0,-0.174 0.086,-0.2609 0.259,-0.2609 h 0.775 c 0.249,0 0.443,0.0677 0.582,0.2027 0.138,0.1356 0.208,0.3285 0.208,0.5798 v 4.7967 c 0,0.261 0.048,0.5049 0.144,0.7318 0.095,0.2272 0.227,0.4229 0.395,0.5869 0.167,0.1644 0.361,0.295 0.581,0.3913 0.22,0.0966 0.46,0.1449 0.718,0.1449 0.249,0 0.486,-0.0483 0.711,-0.1449 0.225,-0.0966 0.421,-0.2269 0.589,-0.3913 0.168,-0.164 0.299,-0.3597 0.395,-0.5869 0.096,-0.2269 0.144,-0.4711 0.144,-0.7318 v -4.7967 c 0,-0.2511 0.067,-0.4442 0.201,-0.5798 0.134,-0.1352 0.325,-0.2027 0.574,-0.2027 z" id="path158"></path><path d="m 127.05,60.858 c 0.249,0 0.505,-0.0242 0.768,-0.0725 0.264,-0.0482 0.548,-0.1108 0.855,-0.1885 0.105,-0.029 0.196,-0.0507 0.273,-0.0653 0.077,-0.0145 0.153,-0.0216 0.23,-0.0216 0.191,0 0.361,0.0485 0.51,0.1448 0.148,0.0966 0.256,0.2368 0.323,0.4204 l 0.129,0.3913 c 0.019,0.0579 0.029,0.1111 0.029,0.1594 0,0.1448 -0.115,0.2826 -0.345,0.4129 -0.23,0.1304 -0.508,0.2442 -0.833,0.3405 -0.325,0.0966 -0.658,0.1718 -0.998,0.2247 -0.34,0.053 -0.625,0.0799 -0.855,0.0799 -0.661,0 -1.283,-0.1087 -1.867,-0.326 -0.584,-0.2173 -1.096,-0.529 -1.537,-0.9348 -0.44,-0.4058 -0.79,-0.8934 -1.048,-1.4635 -0.259,-0.5699 -0.388,-1.2029 -0.388,-1.8985 0,-0.6473 0.105,-1.2559 0.316,-1.826 0.21,-0.5699 0.505,-1.0674 0.883,-1.4927 0.378,-0.425 0.831,-0.7608 1.357,-1.0072 0.527,-0.2464 1.106,-0.3696 1.738,-0.3696 0.584,0 1.101,0.104 1.551,0.3117 0.451,0.208 0.831,0.4928 1.142,0.855 0.311,0.3621 0.548,0.785 0.711,1.2679 0.163,0.4832 0.244,0.9952 0.244,1.5363 v 0.3695 c 0,0.121 -0.005,0.2198 -0.014,0.2972 -0.029,0.3092 -0.132,0.5268 -0.309,0.6522 -0.177,0.1257 -0.39,0.1885 -0.639,0.1885 h -5.113 c 0.115,0.3674 0.273,0.6788 0.474,0.9348 0.201,0.256 0.428,0.4637 0.682,0.6232 0.254,0.1594 0.529,0.2754 0.826,0.3479 0.297,0.0719 0.598,0.1081 0.905,0.1081 z m 1.221,-3.7536 c 0.21,-0.0192 0.316,-0.1158 0.316,-0.2897 0,-0.2703 -0.053,-0.5145 -0.158,-0.7318 -0.106,-0.2173 -0.249,-0.4058 -0.431,-0.5652 -0.182,-0.1594 -0.398,-0.2826 -0.647,-0.3696 -0.249,-0.087 -0.512,-0.1304 -0.789,-0.1304 -0.345,0 -0.656,0.0629 -0.934,0.1885 -0.278,0.1257 -0.517,0.2898 -0.718,0.4928 -0.201,0.2031 -0.359,0.4275 -0.474,0.6739 -0.115,0.2464 -0.187,0.4906 -0.216,0.7318 h 4.051 z" id="path160"></path></g><path d="m 29.555706,63.84726 c 0.0476,-0.1303 0.1275,-0.2352 0.2398,-0.3142 0.1124,-0.0787 0.2364,-0.1185 0.3726,-0.1185 h 0.7655 c 0.1631,0 0.2175,0.079 0.1631,0.2368 l -2.347,6.0238 c -0.0547,0.1303 -0.1498,0.1956 -0.2858,0.1956 h -0.8368 c -0.0611,0 -0.1174,-0.017 -0.1683,-0.0516 -0.0511,-0.0343 -0.0867,-0.0823 -0.1071,-0.144 l -2.3471,-6.0238 c -0.0544,-0.1578 0,-0.2368 0.1632,-0.2368 h 0.7551 c 0.136,0 0.2603,0.0395 0.3726,0.1185 0.1123,0.079 0.1923,0.1839 0.2398,0.3142 l 1.4388,4.0672 c 0.0204,0.0617 0.0441,0.0927 0.0716,0.0927 0.0271,0 0.0511,-0.031 0.0715,-0.0927 z" fill="#ffffff" id="path164"></path><path d="m 33.076706,62.26126 c 0,0.1786 -0.068,0.3295 -0.2042,0.453 -0.1362,0.1235 -0.3029,0.1852 -0.5001,0.1852 -0.1974,0 -0.3622,-0.0617 -0.4949,-0.1852 -0.1327,-0.1235 -0.1991,-0.2744 -0.1991,-0.453 0,-0.1784 0.0664,-0.3295 0.1991,-0.453 0.1327,-0.1235 0.2975,-0.1852 0.4949,-0.1852 0.1972,0 0.3639,0.0617 0.5001,0.1852 0.1362,0.1237 0.2042,0.2746 0.2042,0.453 z m -0.4693,1.1532 c 0.1359,0 0.2466,0.0431 0.3317,0.1287 0.0851,0.0859 0.1276,0.1976 0.1276,0.3348 v 5.7867 c 0,0.1374 -0.068,0.206 -0.2043,0.206 h -0.8878 c -0.1363,0 -0.2042,-0.0686 -0.2042,-0.206 v -6.0444 c 0,-0.1372 0.0679,-0.2061 0.2042,-0.2061 h 0.6328 z" fill="#ffffff" id="path166"></path><path d="m 34.964706,63.40426 c 0.3742,0 0.5613,0.1819 0.5613,0.5457 v 4.4689 c 0,0.1235 0.0612,0.1852 0.1836,0.1852 h 1.6327 c 0.3673,0 0.5509,0.1888 0.5509,0.5663 v 0.4942 c 0,0.1306 -0.0612,0.1956 -0.1836,0.1956 h -2.9287 c -0.3674,0 -0.5512,-0.1852 -0.5512,-0.5559 v -5.7148 c 0,-0.1235 0.0647,-0.1852 0.1939,-0.1852 z" fill="#ffffff" id="path168"></path><path d="m 39.444706,63.40426 c 0.3742,0 0.5613,0.1819 0.5613,0.5457 v 4.4689 c 0,0.1235 0.0612,0.1852 0.1835,0.1852 h 1.6327 c 0.3674,0 0.5509,0.1888 0.5509,0.5663 v 0.4942 c 0,0.1306 -0.0611,0.1956 -0.1835,0.1956 h -2.9287 c -0.3674,0 -0.5512,-0.1852 -0.5512,-0.5559 v -5.7148 c 0,-0.1235 0.0647,-0.1852 0.1939,-0.1852 z" fill="#ffffff" id="path170"></path><path d="m 45.720706,68.65526 c 0.1768,0 0.3587,-0.017 0.5461,-0.0516 0.1871,-0.0343 0.3894,-0.0788 0.6072,-0.1339 0.0748,-0.0206 0.1392,-0.036 0.1939,-0.0464 0.0544,-0.0104 0.1088,-0.0153 0.1632,-0.0153 0.1359,0 0.2567,0.0343 0.3622,0.1029 0.1055,0.0685 0.1819,0.1681 0.2295,0.2985 l 0.0919,0.2779 c 0.0136,0.0412 0.0204,0.079 0.0204,0.1133 0,0.1029 -0.0816,0.2009 -0.245,0.2936 -0.1632,0.0928 -0.3606,0.1734 -0.592,0.242 -0.2314,0.0686 -0.4677,0.1221 -0.7092,0.1597 -0.2415,0.0376 -0.4438,0.0566 -0.6073,0.0566 -0.4693,0 -0.9117,-0.0771 -1.3267,-0.2316 -0.415,-0.1545 -0.7791,-0.3759 -1.0918,-0.6643 -0.313,-0.2884 -0.5613,-0.6349 -0.7451,-1.0399 -0.1836,-0.405 -0.2755,-0.8547 -0.2755,-1.3489 0,-0.4598 0.0748,-0.8923 0.2246,-1.2975 0.1496,-0.405 0.3587,-0.7584 0.6277,-1.0605 0.2686,-0.3021 0.59,-0.5406 0.9642,-0.7156 0.3742,-0.1751 0.7859,-0.2626 1.2349,-0.2626 0.4149,0 0.7823,0.0738 1.1021,0.2214 0.3198,0.1476 0.5901,0.3501 0.8112,0.6075 0.2211,0.2574 0.3894,0.5578 0.5052,0.9011 0.1156,0.3432 0.1735,0.7071 0.1735,1.0915 v 0.2626 c 0,0.0858 -0.0035,0.1561 -0.0103,0.211 -0.0204,0.2197 -0.0935,0.3742 -0.2194,0.4634 -0.1259,0.0892 -0.2774,0.1339 -0.4542,0.1339 h -3.633 c 0.0816,0.2609 0.1939,0.4824 0.3367,0.6643 0.1427,0.1819 0.3043,0.3295 0.4848,0.4428 0.1803,0.1134 0.3758,0.1957 0.5868,0.2472 0.2113,0.0511 0.4256,0.0769 0.6434,0.0769 z m 0.8675,-2.667 c 0.1496,-0.0137 0.2246,-0.0823 0.2246,-0.2058 0,-0.1921 -0.0375,-0.3655 -0.1123,-0.52 -0.075,-0.1544 -0.177,-0.2883 -0.3062,-0.4017 -0.1294,-0.1133 -0.2822,-0.2008 -0.4593,-0.2625 -0.177,-0.0618 -0.3641,-0.0928 -0.5612,-0.0928 -0.2451,0 -0.4661,0.0447 -0.6633,0.1339 -0.1974,0.0892 -0.3674,0.2061 -0.5101,0.3501 -0.1428,0.1441 -0.2551,0.3038 -0.3367,0.4788 -0.0816,0.1751 -0.1327,0.3485 -0.1531,0.52 z" fill="#ffffff" id="path172"></path><path d="m 53.761706,63.41426 c 0.4354,0 0.8452,0.0843 1.2297,0.2522 0.3842,0.1682 0.7211,0.4001 1.0102,0.695 0.2891,0.2952 0.5169,0.6385 0.6836,1.0298 0.1667,0.3912 0.25,0.8099 0.25,1.2561 0,0.4464 -0.0852,0.8648 -0.2551,1.2561 -0.1703,0.3913 -0.4017,0.7329 -0.694,1.0246 -0.2926,0.2919 -0.6344,0.5218 -1.0255,0.6898 -0.3913,0.1681 -0.8079,0.2521 -1.25,0.2521 h -2.0409 c -0.1294,0 -0.1939,-0.0653 -0.1939,-0.1956 v -5.7044 c 0,-0.1647 0.0544,-0.2986 0.1632,-0.4017 0.1088,-0.1029 0.245,-0.1545 0.4082,-0.1545 h 1.7145 z m 1.9185,3.2334 c 0,-0.2744 -0.0511,-0.5318 -0.1531,-0.7724 -0.102,-0.2401 -0.2434,-0.4514 -0.4234,-0.6333 -0.1803,-0.1819 -0.3897,-0.3243 -0.6276,-0.4272 -0.2383,-0.1029 -0.4933,-0.1545 -0.7655,-0.1545 h -0.7348 c -0.1362,0 -0.2042,0.0686 -0.2042,0.2061 v 3.542 c 0,0.1374 0.068,0.206 0.2042,0.206 h 0.7348 c 0.2719,0 0.5272,-0.0515 0.7655,-0.1544 0.2379,-0.1029 0.4473,-0.2437 0.6276,-0.4223 0.1803,-0.1784 0.3214,-0.3877 0.4234,-0.6281 0.102,-0.2401 0.1531,-0.4941 0.1531,-0.7619 z" fill="#ffffff" id="path174"></path><path d="m 60.711706,68.65526 c 0.1768,0 0.3587,-0.017 0.5461,-0.0516 0.1871,-0.0343 0.3894,-0.0788 0.6072,-0.1339 0.0748,-0.0206 0.1392,-0.036 0.1939,-0.0464 0.0544,-0.0104 0.1088,-0.0153 0.1631,-0.0153 0.136,0 0.2568,0.0343 0.3623,0.1029 0.1055,0.0685 0.1819,0.1681 0.2295,0.2985 l 0.0919,0.2779 c 0.0136,0.0412 0.0204,0.079 0.0204,0.1133 0,0.1029 -0.0816,0.2009 -0.245,0.2936 -0.1632,0.0928 -0.3606,0.1734 -0.592,0.242 -0.2314,0.0686 -0.4678,0.1221 -0.7092,0.1597 -0.2415,0.0376 -0.4438,0.0566 -0.6073,0.0566 -0.4693,0 -0.9118,-0.0771 -1.3267,-0.2316 -0.415,-0.1545 -0.7791,-0.3759 -1.0918,-0.6643 -0.313,-0.2884 -0.5613,-0.6349 -0.7451,-1.0399 -0.1836,-0.405 -0.2755,-0.8547 -0.2755,-1.3489 0,-0.4598 0.0748,-0.8923 0.2246,-1.2975 0.1496,-0.405 0.3587,-0.7584 0.6276,-1.0605 0.2687,-0.3021 0.5901,-0.5406 0.9643,-0.7156 0.3742,-0.1751 0.7859,-0.2626 1.2349,-0.2626 0.4149,0 0.7823,0.0738 1.1021,0.2214 0.3198,0.1476 0.5901,0.3501 0.8112,0.6075 0.2211,0.2574 0.3894,0.5578 0.5052,0.9011 0.1156,0.3432 0.1735,0.7071 0.1735,1.0915 v 0.2626 c 0,0.0858 -0.0035,0.1561 -0.0103,0.211 -0.0204,0.2197 -0.0935,0.3742 -0.2195,0.4634 -0.1259,0.0892 -0.2773,0.1339 -0.4541,0.1339 h -3.633 c 0.0816,0.2609 0.1939,0.4824 0.3367,0.6643 0.1427,0.1819 0.3042,0.3295 0.4848,0.4428 0.1803,0.1134 0.3758,0.1957 0.5868,0.2472 0.2113,0.0511 0.4256,0.0769 0.6434,0.0769 z m 0.8675,-2.667 c 0.1496,-0.0137 0.2246,-0.0823 0.2246,-0.2058 0,-0.1921 -0.0375,-0.3655 -0.1123,-0.52 -0.0751,-0.1544 -0.177,-0.2883 -0.3062,-0.4017 -0.1294,-0.1133 -0.2823,-0.2008 -0.4593,-0.2625 -0.177,-0.0618 -0.3641,-0.0928 -0.5613,-0.0928 -0.245,0 -0.466,0.0447 -0.6632,0.1339 -0.1974,0.0892 -0.3674,0.2061 -0.5101,0.3501 -0.1428,0.1441 -0.2551,0.3038 -0.3367,0.4788 -0.0816,0.1751 -0.1327,0.3485 -0.1531,0.52 z" fill="#ffffff" id="path176"></path><path d="m 68.089706,65.95726 c -0.0407,-0.048 -0.0815,-0.0721 -0.1223,-0.0721 -0.068,0 -0.102,0.048 -0.102,0.144 v 0.4429 c 0,0.2472 -0.0732,0.4599 -0.2195,0.6385 -0.1463,0.1786 -0.3385,0.2952 -0.5764,0.3501 l -0.0816,0.0206 h 0.6836 c 0.1292,0 0.1939,0.0653 0.1939,0.1956 v 1.5755 c 0,0.4118 -0.2042,0.6179 -0.6124,0.6179 h -0.4897 c -0.1292,0 -0.1939,-0.0653 -0.1939,-0.1956 v -6.0751 c 0,-0.1235 0.0647,-0.1852 0.1939,-0.1852 h 0.5305 c 0.1496,0 0.2755,0.0241 0.3774,0.0721 0.102,0.048 0.2007,0.1304 0.2959,0.2472 l 2.6432,3.429 c 0.0476,0.048 0.0919,0.0722 0.1327,0.0722 0.0612,0 0.0919,-0.048 0.0919,-0.1441 v -3.1301 c 0,-0.3639 0.1871,-0.5458 0.5613,-0.5458 h 0.5408 c 0.1292,0 0.1939,0.0618 0.1939,0.1852 v 6.0751 c 0,0.1304 -0.0647,0.1957 -0.1939,0.1957 h -0.3673 c -0.313,0 -0.5613,-0.1235 -0.7449,-0.3707 z" fill="#ffffff" id="path178"></path><path d="m 74.160706,64.95926 c -0.1428,0 -0.2638,-0.0481 -0.3623,-0.1441 -0.0987,-0.096 -0.2161,-0.2744 -0.3521,-0.5353 -0.0272,-0.048 -0.0408,-0.0927 -0.0408,-0.1339 0,-0.0755 0.0408,-0.1339 0.1224,-0.1751 0.7211,-0.4255 1.4559,-0.6384 2.2043,-0.6384 0.7551,0 1.3196,0.2093 1.6941,0.628 0.3742,0.4187 0.5613,1.0298 0.5613,1.8329 v 3.8509 c 0,0.1512 -0.0751,0.2267 -0.2247,0.2267 h -0.4389 c -0.4081,0 -0.6123,-0.1751 -0.6123,-0.5252 -0.0751,0.0618 -0.1618,0.1254 -0.2603,0.1904 -0.0987,0.0653 -0.2162,0.1271 -0.3521,0.1852 -0.1363,0.0585 -0.2978,0.1049 -0.4849,0.1392 -0.1871,0.0343 -0.403,0.0515 -0.648,0.0515 -0.2926,0 -0.5561,-0.0496 -0.7908,-0.1492 -0.2347,-0.0994 -0.4305,-0.2352 -0.5868,-0.4067 -0.1567,-0.1715 -0.2774,-0.3775 -0.3622,-0.6179 -0.0852,-0.2401 -0.1276,-0.4977 -0.1276,-0.7724 0,-0.3569 0.0647,-0.6555 0.1939,-0.8958 0.1292,-0.2401 0.301,-0.4377 0.5153,-0.5921 0.2143,-0.1545 0.4574,-0.2744 0.7296,-0.3603 0.272,-0.0859 0.5545,-0.1528 0.8471,-0.2008 0.1632,-0.0206 0.3198,-0.0464 0.4694,-0.0771 0.1495,-0.031 0.2838,-0.0722 0.403,-0.1235 0.1188,-0.0516 0.2142,-0.1218 0.2858,-0.211 0.0715,-0.0892 0.1071,-0.2025 0.1071,-0.3397 0,-0.2266 -0.0884,-0.3877 -0.2654,-0.484 -0.177,-0.096 -0.381,-0.1441 -0.6124,-0.1441 -0.2246,0 -0.4541,0.0343 -0.6888,0.1029 -0.2347,0.0686 -0.4305,0.1408 -0.5868,0.2162 -0.0816,0.0412 -0.148,0.0686 -0.1991,0.0824 -0.0503,0.0134 -0.0963,0.0203 -0.137,0.0203 z m 1.0512,3.7686 c 0.4626,0 0.8368,-0.1372 1.1226,-0.4118 0.2858,-0.2744 0.4285,-0.6418 0.4285,-1.1017 0,-0.1166 -0.0119,-0.211 -0.0356,-0.2832 -0.0239,-0.0721 -0.0663,-0.1012 -0.1275,-0.0875 -0.0612,0.0069 -0.1243,0.0137 -0.1887,0.0206 -0.0648,0.0069 -0.1311,0.0137 -0.1991,0.0206 -0.2178,0.0206 -0.4389,0.0463 -0.6632,0.0771 -0.2244,0.0307 -0.427,0.0823 -0.6073,0.1545 -0.1802,0.0721 -0.3282,0.1767 -0.444,0.3141 -0.1159,0.1375 -0.1735,0.3191 -0.1735,0.5458 0,0.1169 0.0255,0.2214 0.0764,0.3141 0.0511,0.0928 0.1188,0.1718 0.2039,0.2368 0.0852,0.0653 0.1803,0.115 0.2859,0.1493 0.1055,0.034 0.2126,0.0513 0.3216,0.0513 z" fill="#ffffff" id="path180"></path><path d="m 80.610706,65.95726 c -0.0408,-0.048 -0.0816,-0.0721 -0.1224,-0.0721 -0.0679,0 -0.1019,0.048 -0.1019,0.144 v 0.4429 c 0,0.2472 -0.0732,0.4599 -0.2195,0.6385 -0.1463,0.1786 -0.3385,0.2952 -0.5765,0.3501 l -0.0816,0.0206 h 0.6837 c 0.1291,0 0.1939,0.0653 0.1939,0.1956 v 1.5755 c 0,0.4118 -0.2043,0.6179 -0.6124,0.6179 h -0.4898 c -0.1292,0 -0.1939,-0.0653 -0.1939,-0.1956 v -6.0751 c 0,-0.1235 0.0647,-0.1852 0.1939,-0.1852 h 0.5306 c 0.1495,0 0.2754,0.0241 0.3774,0.0721 0.102,0.048 0.2007,0.1304 0.2959,0.2472 l 2.6431,3.429 c 0.0476,0.048 0.092,0.0722 0.1328,0.0722 0.0611,0 0.0919,-0.048 0.0919,-0.1441 v -3.1301 c 0,-0.3639 0.1871,-0.5458 0.5612,-0.5458 h 0.5409 c 0.1292,0 0.1939,0.0618 0.1939,0.1852 v 6.0751 c 0,0.1304 -0.0647,0.1957 -0.1939,0.1957 h -0.3674 c -0.313,0 -0.5612,-0.1235 -0.7448,-0.3707 z" fill="#ffffff" id="path182"></path><path d="m 88.590706,69.40726 c 0,0.1375 -0.0427,0.2489 -0.1275,0.3347 -0.0851,0.0859 -0.1955,0.1287 -0.3318,0.1287 h -0.6327 c -0.1363,0 -0.2043,-0.0686 -0.2043,-0.206 v -4.788 c 0,-0.1372 -0.0679,-0.2061 -0.2042,-0.2061 h -1.2653 c -0.1362,0 -0.2466,-0.0428 -0.3317,-0.1287 -0.0852,-0.0858 -0.1276,-0.1972 -0.1276,-0.3347 v -0.5869 c 0,-0.1372 0.068,-0.2061 0.204,-0.2061 h 4.7349 c 0.136,0 0.204,0.0686 0.204,0.2061 v 0.8443 c 0,0.1374 -0.068,0.2058 -0.204,0.2058 h -1.5101 c -0.1362,0 -0.2039,0.0686 -0.2039,0.206 v 4.5309 z" fill="#ffffff" id="path184"></path><path d="m 94.010706,68.65526 c 0.177,0 0.359,-0.017 0.546,-0.0516 0.187,-0.0343 0.39,-0.0788 0.607,-0.1339 0.075,-0.0206 0.14,-0.036 0.194,-0.0464 0.055,-0.0104 0.109,-0.0153 0.163,-0.0153 0.136,0 0.257,0.0343 0.363,0.1029 0.105,0.0685 0.182,0.1681 0.229,0.2985 l 0.092,0.2779 c 0.014,0.0412 0.02,0.079 0.02,0.1133 0,0.1029 -0.081,0.2009 -0.245,0.2936 -0.163,0.0928 -0.36,0.1734 -0.592,0.242 -0.231,0.0686 -0.467,0.1221 -0.709,0.1597 -0.241,0.0376 -0.444,0.0566 -0.607,0.0566 -0.469,0 -0.912,-0.0771 -1.327,-0.2316 -0.415,-0.1545 -0.779,-0.3759 -1.092,-0.6643 -0.313,-0.2884 -0.561,-0.6349 -0.744,-1.0399 -0.184,-0.405 -0.276,-0.8547 -0.276,-1.3489 0,-0.4598 0.075,-0.8923 0.225,-1.2975 0.149,-0.405 0.358,-0.7584 0.627,-1.0605 0.269,-0.3021 0.59,-0.5406 0.965,-0.7156 0.374,-0.1751 0.786,-0.2626 1.234,-0.2626 0.415,0 0.783,0.0738 1.103,0.2214 0.319,0.1476 0.59,0.3501 0.811,0.6075 0.221,0.2574 0.389,0.5578 0.505,0.9011 0.116,0.3432 0.174,0.7071 0.174,1.0915 v 0.2626 c 0,0.0858 -0.004,0.1561 -0.011,0.211 -0.02,0.2197 -0.093,0.3742 -0.219,0.4634 -0.126,0.0892 -0.278,0.1339 -0.454,0.1339 h -3.633 c 0.081,0.2609 0.193,0.4824 0.336,0.6643 0.143,0.1819 0.305,0.3295 0.485,0.4428 0.18,0.1134 0.376,0.1957 0.587,0.2472 0.211,0.0511 0.425,0.0769 0.643,0.0769 z m 0.868,-2.667 c 0.149,-0.0137 0.224,-0.0823 0.224,-0.2058 0,-0.1921 -0.037,-0.3655 -0.112,-0.52 -0.075,-0.1544 -0.177,-0.2883 -0.306,-0.4017 -0.13,-0.1133 -0.283,-0.2008 -0.46,-0.2625 -0.177,-0.0618 -0.364,-0.0928 -0.561,-0.0928 -0.245,0 -0.466,0.0447 -0.663,0.1339 -0.198,0.0892 -0.368,0.2061 -0.51,0.3501 -0.143,0.1441 -0.255,0.3038 -0.337,0.4788 -0.082,0.1751 -0.133,0.3485 -0.153,0.52 z" fill="#ffffff" id="path186"></path><path d="m 99.170706,64.50626 c -0.347,0 -0.591,0.067 -0.73,0.2009 -0.139,0.1339 -0.209,0.2798 -0.209,0.4376 0,0.1581 0.075,0.29 0.225,0.3965 0.149,0.1065 0.335,0.2061 0.556,0.2985 0.221,0.0928 0.462,0.1872 0.724,0.2832 0.262,0.0963 0.504004,0.2198 0.725004,0.3707 0.221,0.1512 0.406,0.3397 0.556,0.5663 0.149,0.2266 0.224,0.5082 0.224,0.8443 0,0.2335 -0.042,0.4703 -0.127,0.7104 -0.085,0.2403 -0.216,0.4598 -0.393,0.659 -0.177,0.1992 -0.401,0.3622 -0.674,0.4892 -0.272004,0.1271 -0.595004,0.1905 -0.969004,0.1905 -0.259,0 -0.497,-0.0258 -0.714,-0.0771 -0.218,-0.0516 -0.415,-0.115 -0.592,-0.1905 -0.177,-0.0754 -0.336,-0.1596 -0.475,-0.2521 -0.139,-0.0928 -0.26,-0.1836 -0.362,-0.2727 -0.055,-0.0412 -0.082,-0.0892 -0.082,-0.1441 0,-0.0274 0.017,-0.0686 0.051,-0.1235 l 0.255,-0.3501 c 0.116,-0.1783 0.252,-0.2678 0.409,-0.2678 0.102,0 0.221,0.0379 0.357,0.1133 0.245,0.1304 0.455,0.2267 0.632,0.2884 0.177,0.0617 0.357,0.0928 0.541,0.0928 0.157,0 0.291,-0.0206 0.403,-0.0618 0.112,-0.0411 0.203,-0.096 0.271,-0.1646 0.068,-0.0686 0.117,-0.1424 0.148,-0.2214 0.03,-0.0788 0.046,-0.1597 0.046,-0.242 0,-0.1921 -0.075,-0.3534 -0.225,-0.4841 -0.15,-0.1303 -0.337,-0.2488 -0.561,-0.3553 -0.225,-0.1064 -0.466,-0.2126 -0.725,-0.3191 -0.258,-0.1064 -0.5,-0.2332 -0.724,-0.3811 -0.225,-0.1476 -0.412,-0.326 -0.561,-0.5353 -0.15,-0.2094 -0.225,-0.4753 -0.225,-0.7979 0,-0.2607 0.058,-0.5063 0.174,-0.7362 0.115,-0.2299 0.273,-0.4289 0.474,-0.5973 0.201,-0.1682 0.439,-0.3002 0.715,-0.3965 0.275,-0.096 0.572,-0.1441 0.893,-0.1441 0.408,0 0.755,0.0653 1.040004,0.1957 0.286,0.1306 0.524,0.2642 0.715,0.4017 0.102,0.0823 0.115,0.1786 0.041,0.2883 -0.089,0.1304 -0.179,0.2541 -0.271,0.3707 -0.092,0.1169 -0.226,0.1751 -0.403,0.1751 -0.088,0 -0.172,-0.0137 -0.25,-0.0412 -0.078,-0.0274 -0.161004,-0.0565 -0.249004,-0.0875 -0.089,-0.031 -0.186,-0.0601 -0.291,-0.0875 -0.106,-0.0283 -0.227,-0.0423 -0.363,-0.0423 z" fill="#ffffff" id="path188"></path></svg> 